<?xml version="1.0" encoding="UTF-8" standalone="no"?>
<!-- Created with Inkscape (http://www.inkscape.org/) -->

<svg
   version="1.1"
   id="svg1"
   width="1129.3333"
   height="525.33331"
   viewBox="0 0 1129.3333 525.33331"
   xmlns="http://www.w3.org/2000/svg"
   xmlns:svg="http://www.w3.org/2000/svg">
  <defs
     id="defs1" />
  <g
     id="g1">
    <path
       style="opacity:0.96;fill:#000000"
       d="m 43.496831,515.46283 c -12.411782,-2.9556 -24.629135,-12.91905 -30.527,-24.89528 L 9.8508762,484.23419 9.4959002,327.64986 C 9.1058942,155.61325 8.7671262,163.39858 17.146388,151.83134 c 2.217617,-3.06133 7.183333,-7.63231 11.034925,-10.15774 14.090081,-9.23866 7.272165,-8.86333 153.765007,-8.46485 l 131.90453,0.35879 6.43934,2.97191 c 13.23306,6.1074 21.87184,15.5621 25.91388,28.36142 1.54814,4.90225 1.9939,24.7838 2.43644,108.66666 0.29789,56.46667 0.0697,126.96666 -0.50699,156.66666 l -1.04863,54 -3.5014,6.72753 c -4.71477,9.05884 -13.50267,17.61687 -22.3993,21.81337 l -7.33334,3.4591 -132.66665,0.21211 c -74.47706,0.11907 -134.868819,-0.31229 -137.687369,-0.98347 z m 59.596949,-41.05127 c 6.89169,-3.04853 13.78644,-9.89662 16.92899,-16.81444 2.18272,-4.80492 2.43925,-9.50175 2.46548,-45.1407 0.0161,-21.88538 0.54919,-39.57786 1.18512,-39.33334 0.63571,0.24445 23.14669,21.09655 50.0244,46.33801 26.8777,25.24146 51.0778,47.39479 53.77799,49.22962 7.81673,5.3116 17.33645,8.31415 28.93577,9.12644 19.94866,1.39699 35.74559,-5.37514 44.10471,-18.90763 3.67628,-5.95149 4.00128,-7.46035 4.00128,-18.57648 0,-20.05653 3.48149,-15.90575 -77.66666,-92.5976 -11.91667,-11.26225 -21.66666,-20.85928 -21.66666,-21.32673 0,-0.46744 15.74999,-15.65329 34.99999,-33.74633 57.766,-54.29415 57.84676,-54.37644 61.76999,-62.94591 3.15597,-6.89355 3.48437,-8.96067 2.95787,-18.61838 -0.69564,-12.76051 -2.72909,-17.32544 -11.72474,-26.32108 -8.39683,-8.39684 -17.23245,-11.23578 -34.66978,-11.13963 -21.8652,0.12057 -28.1091,4.26382 -79.33333,52.64301 -5.86667,5.54083 -14.85893,13.94714 -19.9828,18.68069 -5.12388,4.73355 -15.05956,14.15645 -22.07931,20.93979 -7.01974,6.78333 -13.17748,12.33333 -13.68386,12.33333 -0.50638,0 -0.9207,-16.6911 -0.9207,-37.09133 0,-42.52492 -0.7044,-46.78923 -9.35162,-56.613 -17.516303,-19.89957 -53.398426,-11.13737 -59.903588,14.62809 -0.943569,3.73726 -1.401742,46.38884 -1.382166,128.66666 0.02877,120.93636 0.0765,123.18056 2.745268,129.07624 4.540269,10.0301 13.262703,17.18828 24.558783,20.15448 5.68665,1.49324 17.51354,0.18549 23.909573,-2.64378 z m 129.04741,-44.57103 c -2.51526,-0.92323 -18.6735,-14.93108 -37.99632,-32.93967 -63.70079,-59.36819 -66.29774,-62.13142 -66.28902,-70.53338 0.009,-8.80353 -3.69046,-4.92198 71.61316,-75.13508 33.96432,-31.66834 36.14987,-33.04149 44.68194,-28.07308 5.34908,3.1149 8.25329,8.67712 7.05215,13.50652 -1.05572,4.24474 -11.45814,14.61611 -56.35224,56.18407 -18.51666,17.14478 -33.66666,31.94004 -33.66666,32.87833 0,0.9383 8.28186,9.38599 18.40412,18.77264 61.98433,57.47975 69.67246,65.04213 71.16155,69.9976 3.36342,11.19299 -6.8874,19.64435 -18.60868,15.34205 z M 624.05787,412.75609 C 604.70863,410.147 591.27741,402.623 585.3265,391.05925 c -4.53147,-8.80549 -5.60638,-27.27346 -2.11894,-36.40519 4.77535,-12.50408 17.40993,-21.93256 35.67704,-26.62377 6.41018,-1.6462 12.57575,-1.98736 27.08369,-1.49858 l 18.78412,0.63284 -0.9648,-5.27606 c -1.26419,-6.91331 -4.89363,-11.70337 -11.35616,-14.98763 -7.29556,-3.70759 -26.26349,-3.49787 -42.44706,0.46932 -6.52655,1.5999 -11.97754,2.74881 -12.11333,2.55313 -0.45355,-0.6536 -4.68689,-25.8134 -4.68689,-27.85537 0,-2.41164 13.64716,-5.90556 30.66666,-7.85122 45.7737,-5.23281 70.93865,6.40485 77.92221,36.03552 1.60779,6.82173 2.04253,17.828 2.05808,52.10424 l 0.0197,43.45561 -5,1.49124 c -16.66381,4.96995 -56.71769,7.89007 -74.79296,5.45276 z m 39.99288,-31.52182 c 0.67935,-0.67935 1.06228,-7.18228 0.85096,-14.45096 l -0.38421,-13.21578 -8,-0.82797 c -9.92848,-1.02756 -25.52909,0.87939 -29.73401,3.63456 -4.81124,3.15244 -7.39328,10.42435 -5.6148,15.81319 1.80598,5.47217 5.28604,8.69695 10.96087,10.15685 5.50037,1.41501 30.25707,0.55424 31.92119,-1.10989 z m 213.80006,30.46833 c -31.3473,-7.84337 -48.97358,-30.05864 -50.88673,-64.13507 -1.27981,-22.79558 5.39737,-42.77677 18.68413,-55.91148 8.05053,-7.95841 12.03678,-10.53553 22.87694,-14.79001 6.83375,-2.68207 10.31172,-3.1334 23.99233,-3.11347 11.69182,0.017 17.57095,0.62354 21.8343,2.25247 3.20887,1.22604 6.05887,2.22916 6.33333,2.22916 0.27447,0 0.49903,-12.6 0.49903,-28 0,-15.4 0.50234,-28 1.11632,-28 0.61397,0 9.38633,-1.52764 19.49413,-3.39475 10.10781,-1.86711 18.59386,-3.17872 18.85789,-2.91468 0.26404,0.26403 0.51531,43.01079 0.55839,94.99279 l 0.0783,94.51273 -9.76904,2.30515 c -27.99506,6.60584 -56.90197,8.1625 -73.66933,3.96716 z m 41.78207,-32.66705 c 2.38044,-1.47119 2.17886,-66.62064 -0.21227,-68.6051 -3.11055,-2.58153 -18.56438,-5.83746 -24.8325,-5.2319 -13.25883,1.28093 -21.01962,8.33952 -24.8047,22.56035 -3.1266,11.74683 -1.86048,28.09051 2.89833,37.41316 2.71501,5.31879 11.02793,12.91879 15.72783,14.37901 4.52947,1.40727 28.75948,1.00721 31.22331,-0.51552 z m 119.55122,34.4209 c -12.2425,-2.94885 -15.5952,-4.08664 -22.2347,-7.5458 -9.062,-4.72119 -20.87491,-16.26097 -25.67611,-25.08241 -11.3327,-20.82194 -11.3348,-51.06854 -0.01,-73.42677 6.796,-13.41117 20.93791,-24.97678 37.56091,-30.71803 12.589,-4.34801 38.3676,-4.34525 50.2473,0.005 22.8734,8.37684 37.5194,25.73043 42.7324,50.63255 2.5413,12.13961 2.5529,20.94882 0.043,32.79608 -5.1616,24.3643 -19.2066,41.10855 -41.6541,49.65949 -7.2552,2.76375 -11.8751,3.52027 -23.6804,3.87773 -8.0667,0.24425 -15.8667,0.15506 -17.3334,-0.19822 z m 24.2466,-33.97375 c 17.8594,-6.74775 24.5483,-39.58128 12.3977,-60.85614 -4.8822,-8.5484 -12.0532,-12.39236 -23.1184,-12.39236 -18.0974,0 -28.8592,13.92183 -28.8592,37.33333 0,16.82298 6.2971,30.14543 16.4215,34.74205 6.1887,2.80977 17.3325,3.37427 23.1584,1.17312 z m -640.57985,31.0751 -4.33334,-0.49256 V 322.14972 234.2342 h 21.37649 21.37648 l -0.42877,31.234 c -0.23583,17.1787 -0.0725,32.24972 0.36299,33.49116 0.60478,1.7241 5.53476,-2.73953 20.8754,-18.90067 11.04601,-11.6368 25.11008,-26.70782 31.25349,-33.49116 l 11.16985,-12.33333 h 25.26859 25.26858 l -4.01582,4.33333 c -2.2087,2.38334 -10.50548,11.53334 -18.43728,20.33334 -7.93181,8.8 -23.68443,25.36219 -35.00583,36.80486 l -20.58436,20.80487 9.09343,7.09226 c 18.46106,14.39839 36.75125,35.42026 57.97295,66.63133 6.23279,9.16667 11.77009,17.41667 12.3051,18.33334 0.764,1.309 -4.46683,1.66666 -24.37467,1.66666 H 526.6467 l -6.22119,-9.66666 c -12.82138,-19.92224 -31.67454,-41.19255 -48.32868,-54.52485 -5.36471,-4.29467 -10.16471,-7.80798 -10.66667,-7.80736 -0.50196,6.2e-4 -0.91265,16.19297 -0.91265,35.98301 v 35.98187 l -16.66666,0.42509 c -9.16667,0.23379 -18.61667,0.20342 -21,-0.0675 z m 309.61077,-0.65694 c -0.35136,-0.91667 -0.48253,-29.83105 -0.29149,-64.25418 l 0.34736,-62.58751 8,-2.40402 c 15.89912,-4.77774 30.45068,-6.86812 48,-6.89535 16.48901,-0.0256 31.24327,2.3156 34.01436,5.39734 0.72081,0.80162 -4.70356,29.32368 -5.8261,30.63441 -0.10552,0.12321 -3.4718,-0.62679 -7.48063,-1.66667 -7.33882,-1.90366 -27.4689,-2.54356 -33.04097,-1.0503 l -3,0.80397 v 51.02231 51.02232 l -3,0.80397 c -1.65,0.44218 -10.66883,0.81216 -20.04184,0.82217 -12.4178,0.0133 -17.21519,-0.43402 -17.68069,-1.64846 z M 388.95477,189.39768 c -5.85881,-2.4321 -9.09527,-8.35557 -9.12363,-16.69832 -0.0599,-17.629 -9.07346,-37.24444 -23.82661,-51.8519 -15.09515,-14.94609 -27.75954,-20.42162 -50.41963,-21.799287 -11.31172,-0.687716 -16.76879,-3.420142 -19.86608,-9.947201 -2.69858,-5.686836 -1.01534,-12.702078 4.22613,-17.61328 3.28625,-3.079173 4.30541,-3.248056 19.02243,-3.152162 13.3261,0.08683 17.07572,0.625905 26.21681,3.769132 22.04102,7.578965 42.0742,21.184335 54.23461,36.832988 13.44057,17.29602 22.37142,41.52078 22.63641,61.40079 0.15239,11.43279 -1.2138,14.9242 -7.28946,18.62879 -5.0421,3.07439 -9.17106,3.1868 -15.81098,0.43045 z m 60.89607,0.89782 c -6.71768,-2.77862 -9.00595,-7.38951 -10.10135,-20.3544 -2.67746,-31.68965 -13.1331,-57.24915 -32.94722,-80.541675 -25.04814,-29.445395 -63.26522,-48.477414 -97.40204,-48.505984 -16.3991,-0.0137 -23.78472,-4.21832 -25.13846,-14.31118 -2.01458,-15.0198 10.64465,-20.3217997 38.92242,-16.30169 52.71792,7.49467 96.95102,36.34795 125.6378,81.953636 11.82938,18.806113 19.41229,41.353203 22.64517,67.333333 1.88332,15.13481 1.88109,17.12353 -0.0243,21.63747 -3.47117,8.22337 -13.49036,12.44156 -21.59203,9.09049 z"
       id="path8" />
  </g>
</svg>
