<?xml version="1.0" encoding="UTF-8" standalone="no"?>
<!-- Created with Inkscape (http://www.inkscape.org/) -->

<svg
   version="1.1"
   id="svg1"
   width="1129.3333"
   height="525.33331"
   viewBox="0 0 1129.3333 525.33331"
   xmlns="http://www.w3.org/2000/svg"
   xmlns:svg="http://www.w3.org/2000/svg">
  <defs
     id="defs1" />
  <g
     id="g1">
    <path
       style="fill:#000000"
       d="m 123.17652,520.36975 -83.333329,-0.66667 -7.693226,-3.60506 C 22.057985,511.3689 12.244759,501.20995 8.2780838,491.38514 L 5.1765264,483.70308 V 327.70309 c 0,-146.98967 0.1391122,-156.39875 2.4085134,-162.90373 4.8293502,-13.84278 14.9477552,-23.46903 30.0186512,-28.55856 7.365585,-2.48739 12.220624,-2.56361 141.628609,-2.22336 l 134.00157,0.35232 8.90113,4.38233 c 10.63833,5.23761 18.36013,13.44476 22.66371,24.08821 l 3.04446,7.52946 v 156.66666 156.66666 l -3.58403,7.64729 c -6.70314,14.30258 -13.82652,21.09805 -27.91257,26.62769 -6.83347,2.68256 -9.57988,2.82042 -58.50339,2.93652 -28.23333,0.067 -88.83333,-0.17817 -134.66666,-0.54483 z m 190.06218,-5.4495 c 11.08937,-3.42516 21.43347,-12.54265 26.9314,-23.73786 l 3.67307,-7.47931 0.35533,-153.91644 c 0.31819,-137.82776 0.13234,-154.68352 -1.77803,-161.25496 -2.8807,-9.90924 -8.30782,-17.40575 -16.82005,-23.23361 -13.60374,-9.31373 -8.69191,-9.03479 -151.91574,-8.62728 -121.586669,0.34594 -128.867225,0.49946 -135.174822,2.85034 -8.805341,3.28181 -18.11798,10.21425 -22.386994,16.66517 -7.9792642,12.05748 -7.6904622,5.19108 -7.3016712,173.60034 l 0.355333,153.91644 3.5171212,7.33333 c 3.998778,8.33761 9.003534,14.10458 16.582522,19.10799 11.360342,7.49975 8.910781,7.37562 147.426571,7.47093 125.66074,0.0865 127.658,0.047 136.53596,-2.69508 z M 72.388688,479.71149 C 64.457623,477.165 54.994591,468.766 51.002802,460.73026 L 47.84319,454.36975 V 329.70309 c 0,-97.33297 0.373382,-125.89681 1.702962,-130.27727 2.727945,-8.98752 9.310551,-16.56267 18.297181,-21.05606 6.945209,-3.47267 9.406076,-3.9914 18.666521,-3.93473 7.587049,0.0464 12.013999,0.76251 15.333336,2.48025 7.60984,3.93805 14.4832,11.50712 17.61696,19.40012 2.71653,6.84214 2.97037,10.08102 3.43746,43.85986 l 0.50434,36.47217 12.88728,-12.53091 c 31.9984,-31.11354 81.00193,-75.66023 90.27419,-82.0638 14.48346,-10.00252 42.17136,-11.19672 58.90999,-2.54084 5.48432,2.83605 13.49747,12.07775 16.78753,19.36134 2.01048,4.45083 2.79738,8.95927 2.83223,16.22688 0.067,13.98362 -5.12461,24.53728 -17.81374,36.212 -14.4205,13.26768 -51.39894,48.2173 -67.24897,63.55936 l -14.47939,14.01534 7.14605,6.74188 c 3.93033,3.70804 17.04606,16.02806 29.14606,27.37784 38.32327,35.94714 56.65136,54.82955 59.92327,61.7356 2.33139,4.92089 3.04341,8.86902 3.12595,17.33333 0.13545,13.89092 -3.37548,21.6824 -13.4832,29.92199 -9.7597,7.9559 -18.34076,10.19091 -36.13031,9.41045 -18.1294,-0.79536 -27.10191,-4.63205 -41.43571,-17.71812 -14.74117,-13.45798 -44.27991,-40.97623 -58,-54.03271 -6.6,-6.28077 -16.60071,-15.79344 -22.22381,-21.13926 l -10.22382,-9.71966 -0.47135,37.7858 c -0.40546,32.50358 -0.79932,38.52134 -2.81744,43.04737 -3.73623,8.37927 -8.09329,13.19243 -15.68034,17.32183 -8.610235,4.68627 -22.349114,5.86915 -32.037732,2.75835 z m 27.562255,-4.53817 c 2.992597,-1.35916 7.648487,-4.74409 10.346417,-7.52207 8.12538,-8.36643 8.87916,-13.13661 8.87916,-56.19017 0,-33.8245 0.22369,-37.758 2.14724,-37.758 1.18098,0 7.03098,4.59843 13,10.21872 56.65359,53.34379 86.85346,81.32508 91.31187,84.60383 8.48587,6.24058 18.88378,9.17745 32.49252,9.17745 6.52713,0 14.3832,-0.63515 17.45793,-1.41145 7.87226,-1.98756 17.42965,-9.37182 21.83917,-16.87345 3.28245,-5.58422 3.74633,-7.71481 3.71186,-17.04843 -0.0686,-18.57867 3.46333,-14.4069 -75.62726,-89.32768 -13.01667,-12.3304 -23.66667,-23.39258 -23.66667,-24.58263 0,-1.19005 16.35,-17.5408 36.33333,-36.33499 53.24868,-50.08004 56.36835,-53.19898 59.60544,-59.5915 8.45788,-16.70239 2.87085,-37.63506 -12.81874,-48.02741 -8.13216,-5.38652 -14.77554,-7.16661 -27.12003,-7.26679 -18.49637,-0.15012 -27.52472,4.89579 -56.56548,31.61423 -26.41343,24.3012 -73.24656,68.27382 -75.9745,71.33405 -5.71158,6.40734 -5.92415,5.16508 -6.4139,-37.48394 -0.51423,-44.78027 -0.63046,-45.43804 -9.82785,-55.61846 -6.56009,-7.26124 -14.133295,-9.91288 -25.905911,-9.07055 -17.544838,1.25532 -29.486365,13.01153 -31.292509,30.80689 -0.458606,4.5185 -0.650682,61.61545 -0.426835,126.88212 0.40696,118.65647 0.407242,118.66712 3.284885,123.99999 6.309339,11.69253 17.148999,17.94144 31.122108,17.94144 5.592116,0 10.596925,-0.87668 14.107755,-2.4712 z M 227.84318,433.11119 c -2.2,-1.00147 -11.55591,-8.92799 -20.79092,-17.61448 -9.235,-8.68649 -24.23243,-22.69363 -33.32762,-31.12696 -46.79432,-43.38912 -51.99146,-49.68824 -49.2858,-59.73627 1.97471,-7.33352 3.46245,-8.97655 33.65949,-37.17293 66.93199,-62.49751 68.94768,-64.27881 73.75798,-65.18123 12.84545,-2.40982 22.67134,8.11446 18.03233,19.31401 -1.50778,3.64011 -12.65527,15.0121 -32.04546,32.69085 -33.89133,30.89997 -57.03269,53.2727 -56.43945,54.56483 0.38401,0.83641 4.08998,4.48284 8.23549,8.10318 20.39423,17.81059 78.74262,73.40941 80.04918,76.277 3.61049,7.92415 0.34229,17.88472 -6.67034,20.32934 -5.54715,1.93374 -10.24863,1.79515 -15.17488,-0.44734 z m 16.2474,-4.97386 c 2.17841,-2.04652 3.08593,-4.39298 3.08593,-7.97896 0,-6.02326 0.14004,-5.86312 -27.33333,-31.25604 -11,-10.16702 -20.9,-19.39608 -22,-20.50903 -1.1,-1.11295 -10.1,-9.52355 -20,-18.69021 -9.9,-9.16667 -18.44081,-17.26667 -18.97958,-18 -3.26762,-4.44763 -0.56103,-7.59721 33.97958,-39.54116 51.81507,-47.91976 54.33333,-50.49748 54.33333,-55.61622 0,-8.45046 -9.74144,-13.57234 -17.70631,-9.30967 -1.57539,0.84312 -16.98594,14.73635 -34.24568,30.87384 -17.25973,16.13749 -39.01692,36.47993 -48.34929,45.20541 -25.23849,23.59719 -25.39144,25.85862 -3.20076,47.32341 23.88143,23.10022 82.3548,77.07122 85.23589,78.67285 4.71791,2.62272 11.71465,2.08151 15.18022,-1.17422 z M 1041.843,417.64667 c -18.1152,-1.83659 -31.7021,-7.97566 -42.88486,-19.37714 -13.88812,-14.15954 -19.79152,-29.5813 -19.76586,-51.63527 0.0412,-35.38026 16.32835,-58.97714 48.13502,-69.73811 13.4735,-4.55841 35.3334,-4.57008 48.6936,-0.026 13.0499,4.43858 16.5537,6.46593 25.5181,14.76547 27.9938,25.91726 29.046,77.91749 2.1474,106.11791 -14.4969,15.19851 -36.9404,22.4179 -61.8434,19.89314 z m 30.7993,-5.8457 c 29.0343,-8.75634 46.4861,-32.95041 46.7872,-64.86285 0.3194,-33.8518 -16.7648,-58.16882 -47.4886,-67.59374 -10.858,-3.33082 -31.3184,-2.87335 -43.2556,0.96714 -20.7796,6.68529 -36.20234,22.08498 -42.87166,42.80741 -4.15643,12.91453 -4.21646,32.06113 -0.14331,45.71033 7.24341,24.2728 27.55397,41.27923 54.17267,45.35973 6.6239,1.0154 26.2529,-0.41373 32.7993,-2.38802 z M 1044.5097,384.483 c -16.4309,-3.4148 -24.1438,-15.779 -24.3044,-38.9614 -0.081,-11.61573 0.2983,-13.67595 3.9494,-21.47806 2.4367,-5.2072 5.8198,-9.978 8.53,-12.02894 13.0238,-9.85569 33.8135,-7.00257 41.8606,5.74483 12.5922,19.94739 7.7453,55.28652 -8.7023,63.44899 -6.97,3.45903 -14.7211,4.64879 -21.3333,3.27458 z m 14.8687,-4.14711 c 11.7987,-3.27715 19.0881,-18.38743 18.2629,-37.85715 -0.8679,-20.4782 -10.7963,-32.82071 -26.3413,-32.74637 -13.7288,0.0657 -23.6052,9.29481 -26.8926,25.13038 -2.9715,14.31356 1.453,33.61615 9.3419,40.75552 5.7977,5.24685 16.5789,7.23137 25.6291,4.71762 z m -443.73429,35.48862 c -11.50729,-2.19936 -24.60129,-8.90155 -29.86373,-15.28581 -11.09364,-13.45851 -11.93186,-37.41787 -1.8515,-52.92263 9.69475,-14.91165 37.23834,-23.65377 65.69653,-20.85155 l 11.1156,1.09453 -0.79766,-4.07798 c -1.09628,-5.60466 -4.76112,-10.30512 -10.19498,-13.07591 -5.86544,-2.99086 -23.57148,-3.09996 -36.57189,-0.22534 -5.13333,1.13507 -11.5071,2.39343 -14.16394,2.79636 l -4.83061,0.73259 -1.5399,-8.48618 c -0.84695,-4.66739 -1.90351,-12.16732 -2.34791,-16.6665 l -0.80801,-8.18033 12.51186,-2.98814 c 14.94974,-3.57036 46.83843,-5.09888 58.95696,-2.82597 18.74455,3.51566 32.25096,13.78123 38.47007,29.23926 2.96397,7.36715 3.07155,9.11482 3.47988,56.53062 l 0.42135,48.92844 -5.74154,1.56026 c -20.95685,5.69499 -63.86759,8.15854 -81.94058,4.70428 z m 59.73391,-4.0769 c 7.07751,-1.06687 15.66955,-2.64515 19.09342,-3.50729 l 6.22522,-1.56753 -0.4893,-44.81818 c -0.46326,-42.43199 -0.6519,-45.30819 -3.54314,-54.02152 -5.89123,-17.75442 -20.27912,-27.71997 -43.22336,-29.93801 -19.49839,-1.88493 -60.34628,2.95863 -60.22605,7.14134 0.10001,3.47933 3.79369,24.66667 4.30025,24.66667 0.31673,0 6.67012,-1.25431 14.11865,-2.78735 16.07767,-3.30908 33.40354,-3.01769 40.92737,0.68832 6.05304,2.98155 10.17949,9.1496 11.30179,16.89349 l 0.88808,6.12781 -21.78723,-0.12186 c -16.81001,-0.094 -23.33256,0.37744 -28.55171,2.06372 -24.33758,7.86338 -35.09867,21.42135 -33.60226,42.3357 1.47385,20.59897 14.11204,33.66004 36.12652,37.33533 11.30562,1.88746 44.51519,1.60865 58.44175,-0.49064 z m -49.17528,-26.61743 c -10.21108,-4.60629 -12.73259,-19.0009 -4.60109,-26.26639 5.36727,-4.79565 16.60803,-7.05747 29.97648,-6.03174 5.72091,0.43896 10.97091,1.14992 11.66667,1.57992 1.97896,1.22307 1.60995,29.58004 -0.40165,30.86518 -3.22888,2.06283 -31.99761,1.94743 -36.64041,-0.14697 z m 32.64041,-2.83085 c 1.17036,-0.35992 1.66666,-4.05207 1.66666,-12.39889 0,-13.72988 0.26572,-13.48071 -14.40957,-13.51248 -16.76962,-0.0363 -25.59042,4.6455 -25.59042,13.58259 0,7.65413 4.12204,11.51641 14,13.11772 5.05887,0.8201 20.75617,0.31116 24.33333,-0.78894 z m 215.90437,33.38476 c -10.73554,-2.71438 -24.25008,-9.67555 -30.45339,-15.68615 -6.53433,-6.33135 -13.04077,-16.61537 -17.05785,-26.96152 -4.27884,-11.0203 -5.35529,-36.04654 -2.09329,-48.66667 6.67538,-25.82598 22.62423,-42.45094 46.64694,-48.62444 9.68369,-2.48858 28.3414,-2.56005 37.38653,-0.14322 3.66667,0.97972 6.74361,1.70324 6.83765,1.60782 0.094,-0.0954 0.57602,-12.15547 1.07108,-26.80012 0.49505,-14.64465 1.09739,-26.82393 1.33853,-27.06507 0.55852,-0.55852 36.52553,-7.27348 40.08607,-7.48398 2.64357,-0.15628 2.66667,0.67869 2.66667,96.41308 v 96.57074 l -4,1.09912 c -25.25297,6.93899 -66.36491,9.80206 -82.42894,5.74041 z m 55.86525,-3.95648 c 6.65664,-1.0787 15.35664,-2.7939 19.33333,-3.81156 l 7.23036,-1.85028 0.34227,-93.28937 0.34227,-93.28936 -18.34227,3.46999 -18.34227,3.46999 -0.36038,27.63803 c -0.40691,31.20553 0.27134,29.65086 -11.13865,25.53186 -7.43159,-2.68279 -26.20883,-3.03027 -35.8343,-0.66313 -22.20185,5.45999 -37.71946,20.99133 -44.78663,44.82625 -3.14618,10.61091 -3.1303,31.72604 0.0321,42.60972 7.38461,25.41522 25.4641,41.75025 51.75946,46.76527 11.21387,2.13869 31.40575,1.56764 49.76476,-1.40741 z m -43.14059,-27.98416 c -8.50518,-2.65587 -14.31445,-7.78687 -18.52556,-16.36262 -3.47434,-7.07532 -3.77015,-8.88085 -3.77015,-23.01108 0,-13.81832 0.3506,-16.08123 3.54841,-22.90282 5.02732,-10.7243 11.62234,-14.90248 24.55341,-15.55547 8.94735,-0.45182 14.0455,0.4247 23.56484,4.05151 l 3.66667,1.39697 v 35.70137 35.70136 l -8.44255,1.47021 c -10.7748,1.87635 -17.44387,1.74364 -24.59507,-0.48943 z m 27.91203,-4.38144 c 1.26178,-1.26179 1.70133,-63.64865 0.46256,-65.65303 -1.15543,-1.86952 -13.07983,-4.45025 -20.51177,-4.43925 -18.22072,0.027 -27.22485,11.67313 -27.13731,35.10002 0.0718,19.20813 6.08344,30.14962 19.58903,35.65292 4.63466,1.88854 25.54895,1.38787 27.59749,-0.66066 z m -500.02737,33.8917 c -1.12866,-1.35995 -1.44241,-25.18722 -1.18992,-90.36545 l 0.34291,-88.5185 h 22.66667 22.66666 l 0.66667,32.60309 0.66666,32.6031 26.66667,-28.57502 c 14.66667,-15.71625 28.56978,-30.55077 30.89582,-32.96558 l 4.22915,-4.39057 25.6608,0.36249 c 15.60889,0.22049 25.82756,0.88478 26.08654,1.69582 0.54797,1.71613 -31.41677,36.8998 -57.00235,62.74262 l -19.87612,20.07595 11.1416,8.75703 c 10.63077,8.35554 25.30786,23.91258 37.50891,39.75773 10.88675,14.13832 30.02231,43.21929 30.02231,45.62596 0,2.28159 -1.60713,2.40827 -26.24647,2.06889 l -26.24648,-0.36152 -8.38842,-12.46583 c -13.66536,-20.30776 -32.40533,-41.10997 -48.76324,-54.12939 l -6.31129,-5.02321 -0.35538,35.80921 -0.35538,35.80922 -21.47675,0.36545 c -17.01285,0.28949 -21.79534,-0.0184 -23.00957,-1.48149 z m 41.15299,-38.88396 c 0,-30.95946 0.2977,-36.66666 1.91265,-36.66666 2.91172,0 20.19796,14.35272 31.49254,26.14816 11.21274,11.70998 25.33867,29.52169 31.86964,40.18517 l 4.28723,7 h 22.5523 c 12.40376,0 22.5523,-0.31769 22.5523,-0.70597 0,-1.67114 -22.61307,-34.3231 -31.36831,-45.29403 -10.24817,-12.84166 -32.7546,-35.18914 -40.95591,-40.66667 -2.74499,-1.83333 -4.99499,-4.24356 -5,-5.35607 -0.005,-1.11251 6.63738,-8.6125 14.76086,-16.66666 12.14516,-12.04151 29.30518,-30.37675 57.06885,-60.97726 l 3.32675,-3.66667 -22.58279,0.0389 -22.58278,0.0389 -14,15.60285 c -23.16874,25.82133 -48.28954,50.98603 -50.89707,50.98603 -2.29449,0 -2.43626,-1.93968 -2.43626,-33.33333 V 237.70311 H 437.1765 417.84316 v 86.66666 86.66667 h 19.33334 19.33333 z m 272.32073,-24.83294 0.34592,-65.56578 5.33333,-1.88162 c 2.93333,-1.0349 11.03333,-3.1623 18,-4.72757 17.06059,-3.83316 50.16734,-4.1778 61.5988,-0.64123 4.17934,1.29297 7.99489,2.99174 8.47901,3.77506 1.25727,2.03431 -6.23773,33.21703 -7.97024,33.15992 -0.7925,-0.0261 -5.04091,-0.91675 -9.44091,-1.97917 -8.46413,-2.04374 -19.3866,-2.48618 -27.65117,-1.12005 l -4.9845,0.82393 -0.34883,51.49473 -0.34883,51.49472 -21.67925,0.36642 -21.67925,0.36642 z m 39.69966,11.83294 c 0.0112,-27.31666 0.50719,-50.43373 1.10213,-51.37125 2.05838,-3.24365 16.79133,-4.95442 27.9864,-3.24975 5.62341,0.85628 11.46592,1.91291 12.98334,2.34808 2.53145,0.72596 2.99935,-0.28842 5.67423,-12.30127 1.60339,-7.20086 2.91186,-13.50155 2.90771,-14.00152 -0.004,-0.49998 -4.57314,-1.9248 -10.1533,-3.16627 -14.38807,-3.20104 -41.30707,-2.0549 -61.05114,2.59941 -7.99162,1.88388 -14.74778,3.64279 -15.01368,3.90869 -0.2659,0.2659 -0.74575,28.4773 -1.06635,62.692 l -0.5829,62.20855 h 18.59657 18.59658 z M 384.32182,192.35353 c -5.34042,-2.82168 -7.81199,-7.87412 -7.81199,-15.96945 0,-7.49154 -4.65095,-24.0674 -9.41057,-33.53902 -2.82775,-5.62722 -7.68078,-11.83575 -14.4416,-18.4753 -15.29111,-15.01684 -30.01138,-21.33333 -49.71626,-21.33333 -10.22168,0 -17.25013,-3.483973 -20.39402,-10.109217 -2.73045,-5.753999 -2.05362,-12.770229 1.72285,-17.859521 4.5127,-6.081462 7.6162,-6.866962 24.90628,-6.303822 13.03971,0.4247 17.8222,1.17327 25.84881,4.045931 31.49747,11.27271 53.81393,30.772319 66.64085,58.229219 9.03183,19.33326 12.98956,41.72359 9.30032,52.61533 -3.50446,10.3462 -15.8802,14.38674 -26.64467,8.69918 z m 15.47561,-1.87873 c 8.56723,-3.57962 10.59561,-13.36161 6.84033,-32.98775 -6.57498,-34.36266 -31.52631,-64.271666 -65.11236,-78.049787 -12.45481,-5.109378 -20.38142,-6.947703 -33.68223,-7.811513 -10.64498,-0.69133 -12.49306,-0.46742 -16.36656,1.982951 -8.18912,5.180423 -9.22791,14.099915 -2.43344,20.894392 3.85804,3.858032 5.45859,4.533333 10.7446,4.533333 11.96157,0 25.29976,2.854014 35.06524,7.503034 10.43137,4.96601 24.43999,16.97662 31.11288,26.67533 6.38892,9.28598 11.67057,24.25498 13.14902,37.26632 1.52344,13.40731 3.82793,17.68514 10.85314,20.14673 2.49798,0.87527 4.71105,1.62527 4.91794,1.66666 0.20689,0.0414 2.41704,-0.77747 4.91144,-1.8197 z m 43.85815,1.83384 c -5.26704,-3.37443 -6.72298,-7.22952 -7.78206,-20.60555 -1.94218,-24.52963 -9.93488,-47.52671 -23.45868,-67.49681 -12.23095,-18.06097 -36.05749,-38.2803 -55.905,-47.44128 -16.95817,-7.82735 -36.44702,-12.39524 -52.88415,-12.39524 -14.79762,0 -21.73847,-4.80112 -22.79203,-15.76569 -0.79775,-8.30231 1.97248,-13.78867 8.53463,-16.90262 7.24921,-3.4399702 33.57702,-2.0944202 51.70498,2.64253 46.18828,12.06928 83.58503,39.97022 108.58432,81.012514 16.40287,26.929216 27.86031,76.794486 20.78751,90.471776 -4.53187,8.76366 -18.10193,12.04625 -26.78952,6.48037 z m 16.05615,-1.79804 c 6.78424,-2.83463 8.7981,-6.70975 8.7981,-16.92953 0,-27.11594 -10.78846,-59.84682 -28.17646,-85.484016 C 410.18304,43.64287 357.16459,14.19622 305.60533,13.2686 c -12.55234,-0.22583 -13.01451,-0.12699 -16.93522,3.62189 -5.11554,4.89134 -6.30536,10.04194 -3.55042,15.3694 3.30514,6.39144 6.74409,7.72108 22.41143,8.66515 44.85834,2.70303 85.01112,26.14433 109.72391,64.0571 13.00975,19.95872 19.94391,40.22007 21.84083,63.81807 1.05892,13.17321 1.49799,14.84466 4.80667,18.29818 3.15943,3.29773 4.86923,4.14127 10.31679,5.08979 0.57355,0.0999 3.04514,-0.65504 5.49241,-1.67758 z"
       id="path1" />
  </g>
</svg>
