<?xml version="1.0" encoding="UTF-8" standalone="no"?>
<!-- Created with Inkscape (http://www.inkscape.org/) -->

<svg
   version="1.1"
   id="svg1"
   width="1129.3333"
   height="525.33331"
   viewBox="0 0 1129.3333 525.33331"
   xmlns="http://www.w3.org/2000/svg"
   xmlns:svg="http://www.w3.org/2000/svg">
  <defs
     id="defs1" />
  <g
     id="g1">
    <path
       style="fill:#000000"
       d="m 445.66326,187.93888 c -5.26704,-3.37443 -6.72298,-7.22952 -7.78206,-20.60555 -1.94218,-24.52964 -9.93488,-47.52672 -23.45868,-67.496807 -12.23094,-18.06098 -36.05749,-38.28031 -55.905,-47.44129 -16.95817,-7.82735 -36.44702,-12.39524 -52.88414,-12.39524 -14.79763,0 -21.73848,-4.80112 -22.79204,-15.76568 -0.79775,-8.30231 1.97248,-13.78868 8.53464,-16.9026197 7.24921,-3.43998 33.57701,-2.09442 51.70497,2.64252 46.18828,12.0692897 83.58503,39.9702297 108.58433,81.0125197 16.40286,26.929207 27.8603,76.794477 20.7875,90.471767 -4.53187,8.76366 -18.10192,12.04625 -26.78952,6.48038 z m 16.05615,-1.79804 c 6.78424,-2.83464 8.7981,-6.70976 8.7981,-16.92953 0,-27.11595 -10.78846,-59.84683 -28.17646,-85.484017 C 412.19072,39.273103 359.17227,9.8264633 307.61301,8.8988333 c -12.55234,-0.22583 -13.01451,-0.12699 -16.93522,3.6218897 -5.11554,4.89134 -6.30535,10.04194 -3.55042,15.3694 3.30515,6.39145 6.74409,7.72108 22.41143,8.66515 44.85835,2.70304 85.01112,26.14433 109.72391,64.057097 13.00975,19.95872 19.94391,40.22008 21.84083,63.81807 1.05892,13.17321 1.49799,14.84467 4.80667,18.29819 3.15943,3.29773 4.86924,4.14126 10.31679,5.08979 0.57356,0.0999 3.04514,-0.65505 5.49241,-1.67758 z"
       id="path15" />
    <path
       style="fill:#000000"
       d="m 386.3295,187.98376 c -5.34042,-2.82168 -7.81198,-7.87412 -7.81198,-15.96945 0,-7.49154 -4.65095,-24.06739 -9.41058,-33.53902 C 366.27919,132.84808 361.42616,126.63954 354.66535,120 339.37424,104.98316 324.65396,98.666663 304.94908,98.666663 c -10.22168,0 -17.25013,-3.48397 -20.39402,-10.10921 -2.73045,-5.754 -2.05361,-12.77023 1.72285,-17.85952 4.5127,-6.08146 7.6162,-6.86696 24.90628,-6.30383 13.03972,0.4247 17.8222,1.17327 25.84881,4.04593 31.49747,11.27271 53.81393,30.77232 66.64085,58.229227 9.03183,19.33325 12.98956,41.72359 9.30032,52.61532 -3.50445,10.34621 -15.88019,14.38675 -26.64467,8.69918 z m 15.47562,-1.87873 c 8.56722,-3.57961 10.59561,-13.3616 6.84032,-32.98774 -6.57498,-34.36267 -31.5263,-64.271667 -65.11236,-78.049787 -12.4548,-5.10938 -20.38142,-6.94771 -33.68223,-7.81152 -10.64498,-0.69133 -12.49306,-0.46742 -16.36656,1.98295 -8.18912,5.18043 -9.22791,14.09992 -2.43343,20.8944 3.85803,3.85803 5.45858,4.53333 10.74459,4.53333 11.96157,0 25.29976,2.85402 35.06525,7.503027 10.43136,4.96602 24.43998,16.97663 31.11287,26.67534 6.38892,9.28598 11.67057,24.25498 13.14902,37.26632 1.52345,13.4073 3.82794,17.68513 10.85314,20.14672 2.49798,0.87528 4.71106,1.62528 4.91794,1.66667 0.20689,0.0414 2.41704,-0.77748 4.91145,-1.81971 z"
       id="path14" />
    <path
       style="fill:#000000"
       d="m 730.83824,345.16705 0.34592,-65.56578 5.33333,-1.88163 c 2.93333,-1.03489 11.03333,-3.1623 18,-4.72757 17.06059,-3.83316 50.16734,-4.17779 61.5988,-0.64123 4.17934,1.29297 7.9949,2.99175 8.47901,3.77506 1.25728,2.03431 -6.23773,33.21703 -7.97024,33.15993 -0.7925,-0.0261 -5.04091,-0.91675 -9.44091,-1.97918 -8.46412,-2.04374 -19.3866,-2.48617 -27.65116,-1.12005 l -4.98451,0.82394 -0.34883,51.49472 -0.34883,51.49472 -21.67925,0.36643 -21.67925,0.36642 z m 39.69967,11.83294 c 0.0112,-27.31667 0.50718,-50.43373 1.10212,-51.37126 2.05838,-3.24365 16.79133,-4.95442 27.98641,-3.24974 5.62341,0.85627 11.46591,1.91291 12.98333,2.34807 2.53145,0.72597 2.99936,-0.28841 5.67423,-12.30126 1.60339,-7.20086 2.91186,-13.50155 2.90771,-14.00153 -0.004,-0.49998 -4.57314,-1.9248 -10.15329,-3.16626 -14.38808,-3.20105 -41.30707,-2.0549 -61.05115,2.59941 -7.99162,1.88388 -14.74777,3.64279 -15.01367,3.90869 -0.2659,0.2659 -0.74576,28.4773 -1.06636,62.692 l -0.58289,62.20854 h 18.59657 18.59657 z"
       id="path13" />
    <path
       style="fill:#000000"
       d="m 417.36452,408.88394 c -1.12866,-1.35994 -1.44241,-25.18721 -1.18992,-90.36544 l 0.34291,-88.51851 h 22.66667 22.66666 l 0.66667,32.6031 0.66667,32.60309 26.66666,-28.57501 c 14.66667,-15.71626 28.56979,-30.55077 30.89582,-32.96559 l 4.22916,-4.39057 25.66079,0.36249 c 15.60889,0.2205 25.82757,0.88479 26.08654,1.69582 0.54798,1.71614 -31.41677,36.8998 -57.00235,62.74262 l -19.87612,20.07595 11.1416,8.75703 c 10.63077,8.35554 25.30786,23.91259 37.50891,39.75773 10.88676,14.13832 30.02231,43.21929 30.02231,45.62596 0,2.28159 -1.60713,2.40828 -26.24647,2.06889 l -26.24647,-0.36152 -8.38843,-12.46583 C 503.97077,377.2264 485.2308,356.42419 468.87289,343.40477 l -6.31129,-5.02322 -0.35538,35.80922 -0.35538,35.80921 -21.47675,0.36546 c -17.01285,0.28949 -21.79534,-0.0184 -23.00957,-1.4815 z m 41.15299,-38.88395 c 0,-30.95947 0.29771,-36.66667 1.91265,-36.66667 2.91172,0 20.19796,14.35272 31.49254,26.14816 11.21274,11.70999 25.33867,29.52169 31.86964,40.18517 l 4.28723,7 h 22.5523 c 12.40376,0 22.5523,-0.31768 22.5523,-0.70596 0,-1.67114 -22.61306,-34.3231 -31.36831,-45.29404 -10.24817,-12.84166 -32.7546,-35.18914 -40.95591,-40.66666 -2.74499,-1.83334 -4.99499,-4.24357 -5,-5.35607 -0.005,-1.11251 6.63738,-8.61251 14.76087,-16.66667 12.14515,-12.04151 29.30517,-30.37674 57.06885,-60.97726 l 3.32674,-3.66667 -22.58278,0.0389 -22.58279,0.0389 -14,15.60286 c -23.16874,25.82132 -48.28954,50.98603 -50.89706,50.98603 -2.2945,0 -2.43627,-1.93968 -2.43627,-33.33333 v -33.33334 h -19.33333 -19.33333 v 86.66667 86.66666 h 19.33333 19.33333 z"
       id="path12" />
    <path
       style="fill:#000000"
       d="m 876.7552,411.31433 c -10.73553,-2.71438 -24.25008,-9.67556 -30.45339,-15.68616 -6.53433,-6.33134 -13.04076,-16.61537 -17.05785,-26.96152 -4.27884,-11.0203 -5.35528,-36.04654 -2.09329,-48.66666 6.67539,-25.82598 22.62423,-42.45095 46.64694,-48.62445 9.68369,-2.48857 28.3414,-2.56005 37.3865,-0.14322 3.6667,0.97972 6.7436,1.70324 6.8377,1.60782 0.094,-0.0954 0.576,-12.15547 1.0711,-26.80012 0.495,-14.64465 1.0973,-26.82393 1.3385,-27.06506 0.5585,-0.55852 36.5255,-7.27348 40.0861,-7.48398 2.6435,-0.15629 2.6666,0.67868 2.6666,96.41308 v 96.57073 l -4,1.09912 c -25.2529,6.93899 -66.36488,9.80206 -82.42891,5.74042 z m 55.86521,-3.95649 c 6.6567,-1.0787 15.3567,-2.7939 19.3334,-3.81156 l 7.2303,-1.85028 0.3423,-93.28936 0.3423,-93.28937 -18.3423,3.46999 -18.3423,3.46999 -0.3604,27.63804 c -0.4069,31.20553 0.2714,29.65085 -11.1386,25.53186 -7.43159,-2.6828 -26.20883,-3.03028 -35.8343,-0.66314 -22.20185,5.46 -37.71946,20.99134 -44.78662,44.82626 -3.14619,10.6109 -3.13031,31.72603 0.032,42.60972 7.38461,25.41521 25.46411,41.75025 51.75947,46.76526 11.21387,2.1387 31.40575,1.56765 49.76475,-1.40741 z m -43.14055,-27.98415 c -8.50518,-2.65587 -14.31444,-7.78688 -18.52556,-16.36263 -3.47433,-7.07532 -3.77015,-8.88084 -3.77015,-23.01107 0,-13.81833 0.3506,-16.08124 3.54841,-22.90283 5.02732,-10.7243 11.62234,-14.90248 24.55341,-15.55547 8.94735,-0.45182 14.04554,0.42471 23.56484,4.05151 l 3.6667,1.39698 v 35.70136 35.70137 l -8.4426,1.4702 c -10.77478,1.87635 -17.44384,1.74364 -24.59505,-0.48942 z m 27.91205,-4.38145 c 1.2618,-1.26178 1.7013,-63.64865 0.4625,-65.65303 -1.1554,-1.86951 -13.07979,-4.45024 -20.51173,-4.43924 -18.22072,0.027 -27.22485,11.67312 -27.13731,35.10002 0.0718,19.20812 6.08345,30.14961 19.58904,35.65291 4.63465,1.88855 25.5489,1.38788 27.5975,-0.66066 z"
       id="path11" />
    <path
       style="fill:#000000"
       d="m 617.65179,411.45475 c -11.50729,-2.19937 -24.60128,-8.90155 -29.86373,-15.28581 -11.09364,-13.45851 -11.93186,-37.41787 -1.8515,-52.92263 9.69475,-14.91166 37.23834,-23.65377 65.69653,-20.85155 l 11.1156,1.09452 -0.79766,-4.07798 c -1.09628,-5.60466 -4.76111,-10.30511 -10.19498,-13.07591 -5.86544,-2.99086 -23.57148,-3.09995 -36.57188,-0.22533 -5.13334,1.13507 -11.50711,2.39343 -14.16395,2.79635 l -4.83061,0.73259 -1.5399,-8.48617 c -0.84695,-4.6674 -1.9035,-12.16732 -2.34791,-16.66651 l -0.808,-8.18033 12.51185,-2.98813 c 14.94974,-3.57037 46.83844,-5.09888 58.95696,-2.82598 18.74455,3.51566 32.25096,13.78124 38.47007,29.23927 2.96397,7.36715 3.07155,9.11481 3.47988,56.53061 l 0.42136,48.92845 -5.74155,1.56025 c -20.95685,5.695 -63.86758,8.15854 -81.94058,4.70429 z m 59.73391,-4.07691 c 7.07751,-1.06686 15.66955,-2.64514 19.09343,-3.50728 l 6.22522,-1.56753 -0.48931,-44.81819 c -0.46325,-42.43199 -0.6519,-45.30819 -3.54314,-54.02152 -5.89123,-17.75441 -20.27911,-27.71996 -43.22336,-29.93801 -19.49838,-1.88493 -60.34627,2.95864 -60.22605,7.14135 0.10001,3.47932 3.79369,24.66666 4.30025,24.66666 0.31673,0 6.67012,-1.25431 14.11865,-2.78735 16.07767,-3.30908 33.40355,-3.01769 40.92737,0.68832 6.05305,2.98155 10.17949,9.1496 11.30179,16.8935 l 0.88809,6.1278 -21.78724,-0.12185 c -16.81001,-0.094 -23.33256,0.37743 -28.55171,2.06372 -24.33757,7.86337 -35.09867,21.42135 -33.60226,42.33569 1.47385,20.59897 14.11204,33.66004 36.12652,37.33533 11.30563,1.88746 44.51519,1.60865 58.44175,-0.49064 z m -49.17528,-26.61742 c -10.21107,-4.6063 -12.73259,-19.0009 -4.60109,-26.26639 5.36727,-4.79566 16.60803,-7.05748 29.97648,-6.03174 5.72091,0.43895 10.97091,1.14992 11.66667,1.57992 1.97896,1.22306 1.60995,29.58003 -0.40165,30.86518 -3.22888,2.06282 -31.99761,1.94743 -36.64041,-0.14697 z m 32.64041,-2.83085 c 1.17037,-0.35993 1.66667,-4.05208 1.66667,-12.3989 0,-13.72988 0.26571,-13.48071 -14.40958,-13.51248 -16.76962,-0.0363 -25.59042,4.6455 -25.59042,13.5826 0,7.65413 4.12205,11.5164 14,13.11772 5.05888,0.82009 20.75618,0.31115 24.33333,-0.78894 z"
       id="path10" />
    <path
       style="fill:#000000"
       d="m 1043.8508,413.27691 c -18.1153,-1.83659 -31.7021,-7.97566 -42.885,-19.37715 -13.88809,-14.15953 -19.79149,-29.5813 -19.76589,-51.63527 0.041,-35.38026 16.3284,-58.97713 48.13509,-69.7381 13.4735,-4.55841 35.3334,-4.57009 48.6936,-0.026 13.05,4.43857 16.5537,6.46593 25.5182,14.76546 27.9937,25.91726 29.046,77.9175 2.1473,106.11792 -14.4969,15.19851 -36.9404,22.41789 -61.8433,19.89314 z m 30.7992,-5.8457 c 29.0343,-8.75635 46.4861,-32.95042 46.7872,-64.86285 0.3194,-33.85181 -16.7648,-58.16883 -47.4886,-67.59374 -10.858,-3.33083 -31.3184,-2.87336 -43.2556,0.96714 -20.7795,6.68529 -36.20239,22.08498 -42.87169,42.8074 -4.1564,12.91454 -4.2164,32.06114 -0.1433,45.71033 7.2434,24.2728 27.55409,41.27923 54.17279,45.35973 6.6239,1.01541 26.2529,-0.41372 32.7992,-2.38801 z m -28.1325,-27.31797 c -16.431,-3.41481 -24.1439,-15.77901 -24.3045,-38.96141 -0.081,-11.61573 0.2984,-13.67595 3.9494,-21.47806 2.4368,-5.2072 5.8199,-9.978 8.5301,-12.02894 13.0238,-9.85569 33.8134,-7.00256 41.8605,5.74484 12.5923,19.94739 7.7454,55.28652 -8.7022,63.44899 -6.97,3.45902 -14.7211,4.64878 -21.3333,3.27458 z m 14.8687,-4.14712 c 11.7986,-3.27714 19.088,-18.38742 18.2629,-37.85715 -0.868,-20.4782 -10.7963,-32.8207 -26.3414,-32.74637 -13.7288,0.0657 -23.6051,9.29481 -26.8926,25.13039 -2.9715,14.31356 1.4531,33.61615 9.342,40.75552 5.7977,5.24684 16.5789,7.23137 25.6291,4.71761 z"
       id="path9" />
    <path
       style="fill:#000000"
       d="m 125.1842,515.99998 -83.333326,-0.66667 -7.69323,-3.60506 c -10.09198,-4.72912 -19.9052,-14.88806 -23.87188,-24.71288 L 7.1842142,479.33331 V 323.33332 c 0,-146.98967 0.13911,-156.39874 2.40851,-162.90373 4.8293498,-13.84278 14.9477498,-23.46903 30.0186498,-28.55855 7.36559,-2.4874 12.22062,-2.56362 141.628606,-2.22337 l 134.00157,0.35232 8.90113,4.38233 c 10.63833,5.23762 18.36014,13.44477 22.66371,24.08821 l 3.04446,7.52946 v 156.66666 156.66666 l -3.58403,7.64729 c -6.70314,14.30258 -13.82651,21.09805 -27.91257,26.6277 -6.83347,2.68256 -9.57988,2.82041 -58.50339,2.93652 -28.23333,0.067 -88.83333,-0.17817 -134.66666,-0.54484 z m 190.06218,-5.4495 c 11.08937,-3.42515 21.43347,-12.54264 26.93141,-23.73786 l 3.67306,-7.47931 0.35533,-153.91643 c 0.3182,-137.82777 0.13234,-154.68352 -1.77803,-161.25496 -2.88069,-9.90924 -8.30782,-17.40575 -16.82005,-23.23361 -13.60374,-9.31374 -8.69191,-9.03479 -151.91574,-8.62729 -121.586666,0.34595 -128.867226,0.49947 -135.174816,2.85035 -8.80534,3.2818 -18.11798,10.21425 -22.387,16.66516 -7.97926,12.05749 -7.69046,5.19108 -7.30167,173.60035 l 0.35534,153.91643 3.51712,7.33334 c 3.99877,8.3376 9.00353,14.10457 16.58252,19.10799 11.36034,7.49975 8.91078,7.37562 147.426566,7.47093 125.66074,0.0865 127.658,0.047 136.53596,-2.69509 z M 74.396374,475.34172 c -7.93107,-2.54649 -17.3941,-10.94548 -21.38589,-18.98122 l -3.15961,-6.36052 V 325.33332 c 0,-97.33296 0.37338,-125.89681 1.70296,-130.27726 2.72795,-8.98753 9.31055,-16.56267 18.29718,-21.05607 6.94521,-3.47266 9.40608,-3.99139 18.66652,-3.93472 7.58705,0.0464 12.013996,0.7625 15.333336,2.48024 7.60984,3.93805 14.4832,11.50712 17.61696,19.40012 2.71653,6.84214 2.97038,10.08103 3.43747,43.85987 l 0.50433,36.47217 12.88728,-12.53091 c 31.9984,-31.11354 81.00193,-75.66024 90.27419,-82.06381 14.48347,-10.00252 42.17136,-11.19672 58.90999,-2.54084 5.48433,2.83606 13.49747,12.07775 16.78753,19.36134 2.01048,4.45084 2.79738,8.95928 2.83223,16.22688 0.0671,13.98362 -5.12461,24.53729 -17.81374,36.212 -14.4205,13.26768 -51.39894,48.2173 -67.24897,63.55936 l -14.47939,14.01535 7.14606,6.74188 c 3.93033,3.70803 17.04605,16.02806 29.14605,27.37783 38.32327,35.94715 56.65136,54.82956 59.92327,61.7356 2.33139,4.92089 3.04341,8.86902 3.12595,17.33333 0.13545,13.89092 -3.37548,21.68241 -13.4832,29.922 -9.7597,7.95589 -18.34076,10.1909 -36.13031,9.41045 -18.1294,-0.79536 -27.10191,-4.63206 -41.43571,-17.71813 -14.74116,-13.45797 -44.27991,-40.97622 -57.99999,-54.0327 -6.6,-6.28078 -16.60072,-15.79344 -22.22382,-21.13926 l -10.22382,-9.71967 -0.47135,37.78581 c -0.40546,32.50357 -0.79932,38.52134 -2.81744,43.04737 -3.73623,8.37926 -8.09329,13.19243 -15.68034,17.32182 -8.610236,4.68628 -22.349106,5.86915 -32.037726,2.75835 z m 27.562246,-4.53817 c 2.9926,-1.35916 7.64849,-4.74409 10.34642,-7.52206 8.12538,-8.36643 8.87916,-13.13662 8.87916,-56.19017 0,-33.8245 0.22369,-37.758 2.14724,-37.758 1.18098,0 7.03098,4.59842 13,10.21872 56.6536,53.34378 86.85346,81.32508 91.31188,84.60383 8.48586,6.24058 18.88377,9.17745 32.49251,9.17745 6.52713,0 14.3832,-0.63516 17.45793,-1.41145 7.87226,-1.98756 17.42965,-9.37182 21.83918,-16.87346 3.28244,-5.58421 3.74633,-7.7148 3.71186,-17.04843 -0.0686,-18.57866 3.46332,-14.4069 -75.62727,-89.32767 -13.01667,-12.3304 -23.66667,-23.39259 -23.66667,-24.58264 0,-1.19005 16.35,-17.5408 36.33333,-36.33499 53.24868,-50.08003 56.36835,-53.19898 59.60544,-59.59149 8.45788,-16.70239 2.87085,-37.63507 -12.81874,-48.02742 -8.13215,-5.38651 -14.77554,-7.1666 -27.12003,-7.26679 -18.49636,-0.15011 -27.52471,4.8958 -56.56548,31.61423 -26.41342,24.30121 -73.24656,68.27382 -75.9745,71.33406 -5.71158,6.40733 -5.92415,5.16507 -6.4139,-37.48395 -0.51423,-44.78027 -0.63045,-45.43804 -9.82785,-55.61846 -6.5601,-7.26124 -14.133296,-9.91288 -25.905906,-9.07055 -17.54484,1.25533 -29.48637,13.01154 -31.29251,30.8069 -0.45861,4.51849 -0.65068,61.61545 -0.42684,126.88211 0.40696,118.65647 0.40725,118.66712 3.28489,124 6.30934,11.69253 17.149,17.94143 31.12211,17.94143 5.59211,0 10.59692,-0.87667 14.107746,-2.4712 z m 127.89224,-42.06213 c -2.2,-1.00147 -11.55591,-8.92798 -20.79092,-17.61448 -9.235,-8.68649 -24.23243,-22.69362 -33.32762,-31.12695 -46.79432,-43.38912 -51.99145,-49.68824 -49.2858,-59.73628 1.97471,-7.33352 3.46245,-8.97655 33.65949,-37.17293 66.93199,-62.4975 68.94768,-64.2788 73.75798,-65.18122 12.84545,-2.40982 22.67134,8.11445 18.03233,19.31401 -1.50778,3.6401 -12.65527,15.0121 -32.04546,32.69085 -33.89133,30.89997 -57.03269,53.27269 -56.43945,54.56483 0.38401,0.8364 4.08998,4.48283 8.23549,8.10317 20.39423,17.81059 78.74263,73.40941 80.04919,76.277 3.61048,7.92416 0.34228,17.88472 -6.67035,20.32934 -5.54715,1.93375 -10.24863,1.79515 -15.17488,-0.44734 z m 16.2474,-4.97386 c 2.17842,-2.04651 3.08593,-4.39298 3.08593,-7.97896 0,-6.02325 0.14005,-5.86311 -27.33333,-31.25604 -11,-10.16701 -20.9,-19.39608 -22,-20.50903 -1.1,-1.11295 -10.1,-9.52354 -20,-18.69021 -9.9,-9.16667 -18.44081,-17.26667 -18.97958,-18 -3.26761,-4.44763 -0.56103,-7.59721 33.97958,-39.54115 51.81508,-47.91977 54.33333,-50.49748 54.33333,-55.61623 0,-8.45046 -9.74144,-13.57234 -17.70631,-9.30967 -1.57539,0.84312 -16.98594,14.73635 -34.24568,30.87385 -17.25973,16.13749 -39.01691,36.47992 -48.34929,45.2054 -25.23848,23.59719 -25.39144,25.85862 -3.20075,47.32341 23.88142,23.10022 82.35479,77.07123 85.23588,78.67285 4.71791,2.62272 11.71466,2.08151 15.18022,-1.17422 z"
       id="path8" />
  </g>
</svg>
